M48
; DRILL file {KiCad (6.0.8)} date Wed Jan 11 18:13:15 2023
; FORMAT={-:-/ absolute / inch / decimal}
; #@! TF.CreationDate,2023-01-11T18:13:15+05:00
; #@! TF.GenerationSoftware,Kicad,Pcbnew,(6.0.8)
; #@! TF.FileFunction,Plated,1,2,PTH
FMAT,2
INCH
; #@! TA.AperFunction,Plated,PTH,ViaDrill
T1C0.0157
; #@! TA.AperFunction,Plated,PTH,ComponentDrill
T2C0.0315
; #@! TA.AperFunction,Plated,PTH,ComponentDrill
T3C0.0394
; #@! TA.AperFunction,Plated,PTH,ComponentDrill
T4C0.0433
; #@! TA.AperFunction,Plated,PTH,ComponentDrill
T5C0.0512
; #@! TA.AperFunction,Plated,PTH,ComponentDrill
T6C0.0591
; #@! TA.AperFunction,Plated,PTH,ComponentDrill
T7C0.0669
%
G90
G05
T1
X6.75Y-5.2
X6.85Y-5.2
X6.95Y-3.8
X6.95Y-3.95
X6.95Y-5.35
X6.95Y-5.45
X6.975Y-4.85
X6.9998Y-4.7252
X7.0Y-4.1
X7.013Y-4.3909
X7.0138Y-4.4659
X7.025Y-4.05
X7.0467Y-3.8033
X7.05Y-5.1
X7.05Y-5.4
X7.148Y-4.7659
X7.148Y-4.8159
X7.193Y-4.4609
X7.193Y-4.5184
X7.193Y-4.7659
X7.193Y-4.8159
X7.2467Y-3.8033
X7.25Y-5.1
X7.275Y-3.975
X7.3Y-5.35
X7.3041Y-5.5459
X7.3097Y-4.0843
X7.358Y-4.3909
X7.358Y-4.7709
X7.425Y-4.45
X7.4341Y-3.7409
X7.45Y-5.35
X7.4541Y-5.5459
X7.475Y-4.625
X7.525Y-4.925
X7.528Y-4.7709
X7.5341Y-3.7409
X7.55Y-4.125
X7.55Y-4.3
X7.55Y-5.1
X7.6Y-5.35
X7.6041Y-5.5459
X7.625Y-5.1
X7.685Y-4.125
X7.733Y-4.0309
X7.733Y-4.0909
X7.743Y-4.8009
X7.7503Y-5.5447
X7.813Y-5.1209
X7.8153Y-5.5447
X7.823Y-4.6809
X7.835Y-4.285
X7.85Y-4.065
X7.9041Y-5.5459
X7.95Y-4.065
X7.968Y-4.6509
X7.995Y-5.275
X8.0Y-4.475
X8.002Y-4.7669
X8.003Y-4.7209
X8.0291Y-5.5459
X8.05Y-4.625
X8.098Y-4.5609
X8.103Y-4.2859
X8.103Y-4.3209
X8.128Y-5.2659
X8.158Y-4.5159
X8.225Y-4.7
X8.228Y-5.1809
X8.242Y-4.137
X8.243Y-4.6209
X8.278Y-5.0859
X8.283Y-4.4409
X8.283Y-4.5459
X8.2841Y-3.7409
X8.293Y-4.6159
X8.3041Y-5.5459
X8.328Y-3.8159
X8.358Y-4.8659
X8.378Y-5.0859
X8.393Y-4.8159
X8.3976Y-4.3406
X8.4341Y-3.7409
X8.45Y-4.77
X8.4524Y-5.5476
X8.492Y-4.102
X8.5045Y-4.5395
X8.572Y-4.022
X8.575Y-4.77
X8.625Y-4.325
X8.6547Y-5.2226
X8.6547Y-5.3953
X8.7Y-3.875
X8.725Y-4.77
X8.75Y-4.325
X8.755Y-4.865
X8.758Y-4.3909
X8.8Y-3.875
X8.825Y-4.97
X8.85Y-5.07
X8.878Y-4.7109
X8.9Y-3.875
X8.903Y-4.0159
X8.925Y-4.865
X8.925Y-4.97
X8.925Y-5.07
X8.925Y-5.17
X9.0291Y-5.5459
X9.1Y-5.375
X9.2041Y-5.5459
X9.25Y-3.875
X9.2841Y-4.8409
X9.29Y-3.995
X9.325Y-3.875
X9.403Y-4.0009
X9.4091Y-3.7409
X9.425Y-5.425
X9.4291Y-5.5459
X9.448Y-4.5159
X9.4841Y-5.3409
X9.5Y-4.975
X9.5Y-5.05
X9.5Y-5.15
X9.5Y-5.25
X9.505Y-4.13
X9.5341Y-3.7409
X9.545Y-3.915
X9.568Y-4.2409
X9.568Y-4.2909
X9.575Y-5.55
X9.578Y-5.422
X9.585Y-4.13
X9.608Y-4.1909
X9.608Y-4.4159
X9.65Y-4.975
X9.65Y-5.125
X9.65Y-5.25
X9.6591Y-3.7409
X9.728Y-4.8909
X9.728Y-4.9259
X9.7591Y-3.7409
X9.8Y-4.725
X9.8Y-4.85
X9.8Y-4.975
X9.8Y-5.125
X9.8Y-5.25
X9.8Y-5.55
X9.8091Y-3.8659
X9.878Y-3.8159
X9.88Y-4.05
X9.885Y-4.23
X9.925Y-4.55
X9.95Y-5.125
X10.0Y-4.375
X10.025Y-4.575
X10.05Y-5.175
X10.075Y-5.375
X10.075Y-5.55
X10.1Y-4.3
X10.1Y-4.375
X10.1Y-4.45
X10.1Y-4.525
X10.1Y-4.6
X10.1Y-4.675
X10.1Y-4.75
X10.1Y-4.825
X10.128Y-3.822
X10.128Y-3.997
X10.128Y-4.147
X10.175Y-4.3
X10.175Y-4.45
X10.175Y-4.525
X10.175Y-4.6
X10.175Y-4.675
X10.175Y-4.75
X10.175Y-4.825
X10.25Y-3.75
X10.25Y-3.9
X10.25Y-4.05
X10.25Y-4.525
X10.25Y-4.6
X10.25Y-4.675
X10.25Y-4.75
X10.25Y-4.825
X10.25Y-5.375
X10.25Y-5.55
X10.253Y-5.1659
X10.26Y-4.21
X10.325Y-4.45
X10.325Y-4.525
X10.325Y-4.6
X10.325Y-4.675
X10.325Y-4.75
X10.325Y-4.825
X10.35Y-5.275
X10.4Y-4.05
X10.4Y-4.3
X10.4Y-4.375
X10.4Y-4.45
X10.4Y-4.525
X10.4Y-4.6
X10.4Y-4.675
X10.4Y-4.75
X10.4Y-4.825
X10.478Y-4.2659
X10.478Y-4.547
X10.478Y-4.822
X10.478Y-5.1659
T2
X7.478Y-4.1695
X7.478Y-4.3616
T3
X7.403Y-3.9409
X7.503Y-3.9409
X7.603Y-3.9409
X7.703Y-3.9409
X7.703Y-4.2159
X7.703Y-4.3159
X7.703Y-4.4159
X7.703Y-4.5159
X7.703Y-4.6159
X7.803Y-3.9409
X7.828Y-5.3409
X7.903Y-3.9409
X7.928Y-5.3409
X8.003Y-3.9409
X8.078Y-5.3409
X8.153Y-3.9409
X8.178Y-5.3409
X8.253Y-3.9409
X8.278Y-5.3409
X8.353Y-3.9409
X8.378Y-5.3409
X8.453Y-3.9409
X8.478Y-5.3409
X8.553Y-3.9409
X8.578Y-5.3409
X8.653Y-3.9409
X8.678Y-4.3909
X8.678Y-4.4909
X8.728Y-5.3409
X8.753Y-3.9409
X8.828Y-5.3409
X8.853Y-3.9409
X8.853Y-4.1663
X8.853Y-4.2663
X8.853Y-4.3663
X8.853Y-4.4663
X8.928Y-5.3409
X8.953Y-3.9409
X9.028Y-5.3409
X9.203Y-3.9659
X9.203Y-4.0659
X9.203Y-4.1659
X9.203Y-4.2659
X9.203Y-4.3659
X9.203Y-4.4659
X9.203Y-4.5659
X9.203Y-4.6659
X9.203Y-4.8409
X9.203Y-4.9409
X9.203Y-5.0409
X9.203Y-5.1409
X9.203Y-5.2409
X9.203Y-5.3409
X9.578Y-5.3409
X9.678Y-5.3409
T4
X10.153Y-5.0293
X10.253Y-5.0293
X10.353Y-5.0293
T5
X9.478Y-4.7409
X9.6748Y-4.7409
X9.953Y-5.2659
X9.953Y-5.4628
T6
X6.803Y-4.1659
X6.803Y-4.5159
X6.803Y-4.8659
T7
X6.703Y-4.0659
X6.703Y-4.2659
X6.703Y-4.4159
X6.703Y-4.6159
X6.703Y-4.7659
X6.703Y-4.9659
X6.903Y-4.0659
X6.903Y-4.2659
X6.903Y-4.4159
X6.903Y-4.6159
X6.903Y-4.7659
X6.903Y-4.9659
T0
M30
